<svg id="visual" viewBox="0 0 900 600" width="900" height="600" xmlns="http://www.w3.org/2000/svg" xmlns:xlink="http://www.w3.org/1999/xlink" version="1.1"><rect x="0" y="0" width="900" height="600" fill="#121212"></rect><defs><linearGradient id="grad1_0" x1="33.3%" y1="0%" x2="100%" y2="100%"><stop offset="20%" stop-color="#4c7273" stop-opacity="1"></stop><stop offset="80%" stop-color="#4c7273" stop-opacity="1"></stop></linearGradient></defs><defs><linearGradient id="grad1_1" x1="33.3%" y1="0%" x2="100%" y2="100%"><stop offset="20%" stop-color="#4c7273" stop-opacity="1"></stop><stop offset="80%" stop-color="#3d5859" stop-opacity="1"></stop></linearGradient></defs><defs><linearGradient id="grad1_2" x1="33.3%" y1="0%" x2="100%" y2="100%"><stop offset="20%" stop-color="#2f3f40" stop-opacity="1"></stop><stop offset="80%" stop-color="#3d5859" stop-opacity="1"></stop></linearGradient></defs><defs><linearGradient id="grad1_3" x1="33.3%" y1="0%" x2="100%" y2="100%"><stop offset="20%" stop-color="#2f3f40" stop-opacity="1"></stop><stop offset="80%" stop-color="#212828" stop-opacity="1"></stop></linearGradient></defs><defs><linearGradient id="grad1_4" x1="33.3%" y1="0%" x2="100%" y2="100%"><stop offset="20%" stop-color="#121212" stop-opacity="1"></stop><stop offset="80%" stop-color="#212828" stop-opacity="1"></stop></linearGradient></defs><defs><linearGradient id="grad2_0" x1="0%" y1="0%" x2="66.7%" y2="100%"><stop offset="20%" stop-color="#4c7273" stop-opacity="1"></stop><stop offset="80%" stop-color="#4c7273" stop-opacity="1"></stop></linearGradient></defs><defs><linearGradient id="grad2_1" x1="0%" y1="0%" x2="66.7%" y2="100%"><stop offset="20%" stop-color="#3d5859" stop-opacity="1"></stop><stop offset="80%" stop-color="#4c7273" stop-opacity="1"></stop></linearGradient></defs><defs><linearGradient id="grad2_2" x1="0%" y1="0%" x2="66.7%" y2="100%"><stop offset="20%" stop-color="#3d5859" stop-opacity="1"></stop><stop offset="80%" stop-color="#2f3f40" stop-opacity="1"></stop></linearGradient></defs><defs><linearGradient id="grad2_3" x1="0%" y1="0%" x2="66.7%" y2="100%"><stop offset="20%" stop-color="#212828" stop-opacity="1"></stop><stop offset="80%" stop-color="#2f3f40" stop-opacity="1"></stop></linearGradient></defs><defs><linearGradient id="grad2_4" x1="0%" y1="0%" x2="66.7%" y2="100%"><stop offset="20%" stop-color="#212828" stop-opacity="1"></stop><stop offset="80%" stop-color="#121212" stop-opacity="1"></stop></linearGradient></defs><g transform="translate(900, 0)"><path d="M0 513.8C-31.7 516.1 -63.4 518.5 -87.5 496.3C-111.7 474.2 -128.3 427.5 -145.7 400.3C-163.1 373.1 -181.4 365.3 -209.5 362.9C-237.6 360.4 -275.5 363.2 -283.5 337.8C-291.4 312.4 -269.4 258.7 -287.3 241C-305.2 223.4 -363 241.7 -413.1 238.5C-463.2 235.3 -505.6 210.7 -482.8 175.7C-460 140.8 -372 95.6 -366.3 64.6C-360.6 33.6 -437.2 16.8 -513.8 0L0 0Z" fill="#1a1d1d"></path><path d="M0 411C-25.3 412.9 -50.7 414.8 -70 397.1C-89.3 379.4 -102.6 342 -116.6 320.2C-130.5 298.5 -145.1 292.3 -167.6 290.3C-190.1 288.3 -220.4 290.6 -226.8 270.3C-233.1 249.9 -215.5 207 -229.8 192.8C-244.1 178.7 -290.4 193.3 -330.5 190.8C-370.6 188.3 -404.5 168.5 -386.2 140.6C-368 112.6 -297.6 76.5 -293.1 51.7C-288.5 26.9 -349.8 13.4 -411 0L0 0Z" fill="#283334"></path><path d="M0 308.3C-19 309.7 -38 311.1 -52.5 297.8C-67 284.5 -77 256.5 -87.4 240.2C-97.9 223.9 -108.8 219.2 -125.7 217.7C-142.6 216.2 -165.3 217.9 -170.1 202.7C-174.8 187.4 -161.6 155.2 -172.4 144.6C-183.1 134 -217.8 145 -247.9 143.1C-277.9 141.2 -303.4 126.4 -289.7 105.4C-276 84.5 -223.2 57.4 -219.8 38.8C-216.4 20.2 -262.3 10.1 -308.3 0L0 0Z" fill="#364b4c"></path><path d="M0 205.5C-12.7 206.5 -25.3 207.4 -35 198.5C-44.7 189.7 -51.3 171 -58.3 160.1C-65.3 149.2 -72.6 146.1 -83.8 145.1C-95 144.2 -110.2 145.3 -113.4 135.1C-116.6 125 -107.7 103.5 -114.9 96.4C-122.1 89.3 -145.2 96.7 -165.2 95.4C-185.3 94.1 -202.2 84.3 -193.1 70.3C-184 56.3 -148.8 38.2 -146.5 25.8C-144.3 13.4 -174.9 6.7 -205.5 0L0 0Z" fill="#456566"></path><path d="M0 102.8C-6.3 103.2 -12.7 103.7 -17.5 99.3C-22.3 94.8 -25.7 85.5 -29.1 80.1C-32.6 74.6 -36.3 73.1 -41.9 72.6C-47.5 72.1 -55.1 72.6 -56.7 67.6C-58.3 62.5 -53.9 51.7 -57.5 48.2C-61 44.7 -72.6 48.3 -82.6 47.7C-92.6 47.1 -101.1 42.1 -96.6 35.1C-92 28.2 -74.4 19.1 -73.3 12.9C-72.1 6.7 -87.4 3.4 -102.8 0L0 0Z" fill="#4c7273"></path></g><g transform="translate(0, 600)"><path d="M0 -513.8C33 -521.3 66 -528.9 88.9 -504.2C111.9 -479.5 124.8 -422.6 147.8 -405.9C170.7 -389.3 203.8 -412.8 245.5 -425.2C287.2 -437.6 337.5 -438.8 330.3 -393.6C323 -348.3 258 -256.6 278.8 -234C299.6 -211.3 406.1 -257.7 431.3 -249C456.4 -240.3 400.2 -176.5 383.4 -139.5C366.6 -102.6 389.3 -92.4 417.6 -73.6C445.9 -54.8 479.8 -27.4 513.8 0L0 0Z" fill="#1a1d1d"></path><path d="M0 -411C26.4 -417.1 52.8 -423.1 71.1 -403.4C89.5 -383.6 99.8 -338.1 118.2 -324.8C136.6 -311.4 163 -330.3 196.4 -340.2C229.8 -350.1 270 -351.1 264.2 -314.9C258.4 -278.7 206.4 -205.3 223.1 -187.2C239.7 -169.1 324.9 -206.2 345 -199.2C365.1 -192.2 320.1 -141.2 306.7 -111.6C293.3 -82.1 311.4 -73.9 334 -58.9C356.7 -43.9 383.9 -21.9 411 0L0 0Z" fill="#283334"></path><path d="M0 -308.3C19.8 -312.8 39.6 -317.3 53.3 -302.5C67.1 -287.7 74.9 -253.6 88.7 -243.6C102.4 -233.6 122.3 -247.7 147.3 -255.1C172.3 -262.6 202.5 -263.3 198.2 -236.2C193.8 -209 154.8 -154 167.3 -140.4C179.8 -126.8 243.7 -154.6 258.8 -149.4C273.9 -144.2 240.1 -105.9 230 -83.7C220 -61.5 233.6 -55.4 250.5 -44.2C267.5 -32.9 287.9 -16.5 308.3 0L0 0Z" fill="#364b4c"></path><path d="M0 -205.5C13.2 -208.5 26.4 -211.6 35.6 -201.7C44.7 -191.8 49.9 -169.1 59.1 -162.4C68.3 -155.7 81.5 -165.1 98.2 -170.1C114.9 -175 135 -175.5 132.1 -157.4C129.2 -139.3 103.2 -102.7 111.5 -93.6C119.9 -84.5 162.5 -103.1 172.5 -99.6C182.6 -96.1 160.1 -70.6 153.4 -55.8C146.6 -41 155.7 -37 167 -29.5C178.3 -21.9 191.9 -11 205.5 0L0 0Z" fill="#456566"></path><path d="M0 -102.8C6.6 -104.3 13.2 -105.8 17.8 -100.8C22.4 -95.9 25 -84.5 29.6 -81.2C34.1 -77.9 40.8 -82.6 49.1 -85C57.4 -87.5 67.5 -87.8 66.1 -78.7C64.6 -69.7 51.6 -51.3 55.8 -46.8C59.9 -42.3 81.2 -51.5 86.3 -49.8C91.3 -48.1 80 -35.3 76.7 -27.9C73.3 -20.5 77.9 -18.5 83.5 -14.7C89.2 -11 96 -5.5 102.8 0L0 0Z" fill="#4c7273"></path></g></svg>