<svg id="visual" viewBox="0 0 900 600" width="900" height="600" xmlns="http://www.w3.org/2000/svg" xmlns:xlink="http://www.w3.org/1999/xlink" version="1.1"><rect x="0" y="0" width="900" height="600" fill="#121212"></rect><defs><linearGradient id="grad1_0" x1="33.3%" y1="0%" x2="100%" y2="100%"><stop offset="20%" stop-color="#4c7273" stop-opacity="1"></stop><stop offset="80%" stop-color="#4c7273" stop-opacity="1"></stop></linearGradient></defs><defs><linearGradient id="grad1_1" x1="33.3%" y1="0%" x2="100%" y2="100%"><stop offset="20%" stop-color="#4c7273" stop-opacity="1"></stop><stop offset="80%" stop-color="#3d5859" stop-opacity="1"></stop></linearGradient></defs><defs><linearGradient id="grad1_2" x1="33.3%" y1="0%" x2="100%" y2="100%"><stop offset="20%" stop-color="#2f3f40" stop-opacity="1"></stop><stop offset="80%" stop-color="#3d5859" stop-opacity="1"></stop></linearGradient></defs><defs><linearGradient id="grad1_3" x1="33.3%" y1="0%" x2="100%" y2="100%"><stop offset="20%" stop-color="#2f3f40" stop-opacity="1"></stop><stop offset="80%" stop-color="#212828" stop-opacity="1"></stop></linearGradient></defs><defs><linearGradient id="grad1_4" x1="33.3%" y1="0%" x2="100%" y2="100%"><stop offset="20%" stop-color="#121212" stop-opacity="1"></stop><stop offset="80%" stop-color="#212828" stop-opacity="1"></stop></linearGradient></defs><defs><linearGradient id="grad2_0" x1="0%" y1="0%" x2="66.7%" y2="100%"><stop offset="20%" stop-color="#4c7273" stop-opacity="1"></stop><stop offset="80%" stop-color="#4c7273" stop-opacity="1"></stop></linearGradient></defs><defs><linearGradient id="grad2_1" x1="0%" y1="0%" x2="66.7%" y2="100%"><stop offset="20%" stop-color="#3d5859" stop-opacity="1"></stop><stop offset="80%" stop-color="#4c7273" stop-opacity="1"></stop></linearGradient></defs><defs><linearGradient id="grad2_2" x1="0%" y1="0%" x2="66.7%" y2="100%"><stop offset="20%" stop-color="#3d5859" stop-opacity="1"></stop><stop offset="80%" stop-color="#2f3f40" stop-opacity="1"></stop></linearGradient></defs><defs><linearGradient id="grad2_3" x1="0%" y1="0%" x2="66.7%" y2="100%"><stop offset="20%" stop-color="#212828" stop-opacity="1"></stop><stop offset="80%" stop-color="#2f3f40" stop-opacity="1"></stop></linearGradient></defs><defs><linearGradient id="grad2_4" x1="0%" y1="0%" x2="66.7%" y2="100%"><stop offset="20%" stop-color="#212828" stop-opacity="1"></stop><stop offset="80%" stop-color="#121212" stop-opacity="1"></stop></linearGradient></defs><g transform="translate(900, 0)"><path d="M0 405.6C-35.1 403.8 -70.2 402 -105 391.8C-139.8 381.6 -174.4 362.9 -191 330.8C-207.6 298.8 -206.3 253.3 -231.9 231.9C-257.6 210.6 -310.3 213.3 -336.9 194.5C-363.4 175.7 -363.8 135.4 -370.9 99.4C-378 63.4 -391.8 31.7 -405.6 0L0 0Z" fill="#1a1d1d"></path><path d="M0 324.5C-28.1 323.1 -56.1 321.6 -84 313.4C-111.8 305.3 -139.5 290.3 -152.8 264.7C-166.1 239 -165 202.6 -185.5 185.5C-206.1 168.5 -248.3 170.6 -269.5 155.6C-290.7 140.6 -291.1 108.3 -296.7 79.5C-302.4 50.7 -313.5 25.4 -324.5 0L0 0Z" fill="#283334"></path><path d="M0 243.4C-21 242.3 -42.1 241.2 -63 235.1C-83.9 228.9 -104.6 217.7 -114.6 198.5C-124.6 179.3 -123.8 152 -139.2 139.2C-154.6 126.3 -186.2 128 -202.1 116.7C-218.1 105.4 -218.3 81.2 -222.5 59.6C-226.8 38 -235.1 19 -243.4 0L0 0Z" fill="#364b4c"></path><path d="M0 162.2C-14 161.5 -28.1 160.8 -42 156.7C-55.9 152.6 -69.8 145.2 -76.4 132.3C-83 119.5 -82.5 101.3 -92.8 92.8C-103 84.2 -124.1 85.3 -134.8 77.8C-145.4 70.3 -145.5 54.2 -148.4 39.8C-151.2 25.4 -156.7 12.7 -162.2 0L0 0Z" fill="#456566"></path><path d="M0 81.1C-7 80.8 -14 80.4 -21 78.4C-28 76.3 -34.9 72.6 -38.2 66.2C-41.5 59.8 -41.3 50.7 -46.4 46.4C-51.5 42.1 -62.1 42.7 -67.4 38.9C-72.7 35.1 -72.8 27.1 -74.2 19.9C-75.6 12.7 -78.4 6.3 -81.1 0L0 0Z" fill="#4c7273"></path></g><g transform="translate(0, 600)"><path d="M0 -405.6C26.4 -368.8 52.8 -332 88 -328.4C123.2 -324.8 167.2 -354.5 202.8 -351.3C238.4 -348.1 265.6 -312.1 272.9 -272.9C280.3 -233.8 267.9 -191.4 284.1 -164C300.2 -136.6 344.9 -124 369.9 -99.1C395 -74.3 400.3 -37.1 405.6 0L0 0Z" fill="#1a1d1d"></path><path d="M0 -324.5C21.1 -295.1 42.2 -265.6 70.4 -262.7C98.6 -259.9 133.8 -283.6 162.2 -281C190.7 -278.5 212.5 -249.7 218.4 -218.4C224.3 -187 214.3 -153.2 227.2 -131.2C240.2 -109.2 275.9 -99.2 296 -79.3C316 -59.4 320.2 -29.7 324.5 0L0 0Z" fill="#283334"></path><path d="M0 -243.4C15.8 -221.3 31.7 -199.2 52.8 -197C73.9 -194.9 100.3 -212.7 121.7 -210.8C143 -208.9 159.3 -187.3 163.8 -163.8C168.2 -140.3 160.7 -114.9 170.4 -98.4C180.1 -81.9 207 -74.4 222 -59.5C237 -44.6 240.2 -22.3 243.4 0L0 0Z" fill="#364b4c"></path><path d="M0 -162.2C10.6 -147.5 21.1 -132.8 35.2 -131.4C49.3 -129.9 66.9 -141.8 81.1 -140.5C95.4 -139.2 106.2 -124.8 109.2 -109.2C112.1 -93.5 107.2 -76.6 113.6 -65.6C120.1 -54.6 138 -49.6 148 -39.7C158 -29.7 160.1 -14.9 162.2 0L0 0Z" fill="#456566"></path><path d="M0 -81.1C5.3 -73.8 10.6 -66.4 17.6 -65.7C24.6 -65 33.4 -70.9 40.6 -70.3C47.7 -69.6 53.1 -62.4 54.6 -54.6C56.1 -46.8 53.6 -38.3 56.8 -32.8C60 -27.3 69 -24.8 74 -19.8C79 -14.9 80.1 -7.4 81.1 0L0 0Z" fill="#4c7273"></path></g></svg>